<svg xmlns="http://www.w3.org/2000/svg" viewBox="200 155 555 555">
  <path fill="#37B879" d="M501.87 580.05c0 34.5 30.13 36.27 44.75 18.58 12.85-15.04 17.72-34.5 17.72-53.08 0-42.02-21.71-73.42-62.92-84.48l.45 118.98Zm0 123.85c-13.74.89-56.72-3.54-62.92-45.11-10.19-60.6-10.19-197.72-10.19-197.72-42.98 12.82-53.61 51.3-59.81 77.85-10.64 53.96 6.2 115.44 11.07 134.9 4.88 19.47-31.01 15.04-57.15 13.27-14.63-1.32-26.59-3.53-34.12-30.96-13.3-47.77-11.52-98.64-7.98-118.54C298.5 429.22 362.3 356.24 468.2 356.24c105.9 0 187.42 72.98 187.42 177.81 2.66 96.87-46.08 169.85-153.74 169.85ZM465.62 321.43c-41.16 0-74.84-33.62-74.84-74.72 0-41.09 33.68-74.71 74.84-74.71 41.17 0 74.84 33.62 74.84 74.71a74.73 74.73 0 0 1-74.84 74.72Z"/>
</svg>
